HIERARCHY
ROOT Hips
{
	OFFSET 0.000000 100.481300 0.000000
	CHANNELS 6 Xposition Yposition Zposition Xrotation Yrotation Zrotation
	JOINT Spine
	{
		OFFSET -0.279200 12.230698 -2.892100
		CHANNELS 3 Xrotation Yrotation Zrotation
		JOINT Spine1
		{
			OFFSET -0.325700 14.269203 -3.374200
			CHANNELS 3 Xrotation Yrotation Zrotation
			JOINT Spine2
			{
				OFFSET -0.372300 16.307602 -0.352600
				CHANNELS 3 Xrotation Yrotation Zrotation
				JOINT Neck
				{
					OFFSET -0.418800 17.814194 8.416900
					CHANNELS 3 Xrotation Yrotation Zrotation
					JOINT Head
					{
						OFFSET 0.000000 7.031097 3.806800
						CHANNELS 3 Xrotation Yrotation Zrotation
						JOINT HeadTop_End
						{
							OFFSET 0.000000 24.646606 12.978600
							CHANNELS 3 Xrotation Yrotation Zrotation
							End Site
							{
								OFFSET 0.000000 27.854965 0.000000
							}
						}
					}
				}
				JOINT LeftShoulder
				{
					OFFSET 16.952999 14.495407 -7.737500
					CHANNELS 3 Xrotation Yrotation Zrotation
					JOINT LeftArm
					{
						OFFSET 9.308998 -2.777710 0.208600
						CHANNELS 3 Xrotation Yrotation Zrotation
						JOINT LeftForeArm
						{
							OFFSET 29.972298 0.000000 0.000000
							CHANNELS 3 Xrotation Yrotation Zrotation
							JOINT LeftHand
							{
								OFFSET 26.026505 0.000000 0.000000
								CHANNELS 3 Xrotation Yrotation Zrotation
								JOINT LeftHandThumb1
								{
									OFFSET 12.240501 -7.147949 9.207150
									CHANNELS 3 Xrotation Yrotation Zrotation
									JOINT LeftHandThumb2
									{
										OFFSET 4.138618 -2.389435 2.389433
										CHANNELS 3 Xrotation Yrotation Zrotation
										JOINT LeftHandThumb3
										{
											OFFSET 2.726913 -1.574387 1.574386
											CHANNELS 3 Xrotation Yrotation Zrotation
											JOINT LeftHandThumb4
											{
												OFFSET 3.941010 -2.275345 2.275342
												CHANNELS 3 Xrotation Yrotation Zrotation
												End Site
												{
													OFFSET -0.005798 5.087799 0.009903
												}
											}
										}
									}
								}
								JOINT LeftHandIndex1
								{
									OFFSET 24.424698 -1.985611 5.953459
									CHANNELS 3 Xrotation Yrotation Zrotation
									JOINT LeftHandIndex2
									{
										OFFSET 6.426697 0.000000 0.000000
										CHANNELS 3 Xrotation Yrotation Zrotation
										JOINT LeftHandIndex3
										{
											OFFSET 5.337898 0.000000 0.000000
											CHANNELS 3 Xrotation Yrotation Zrotation
											JOINT LeftHandIndex4
											{
												OFFSET 4.409401 0.000000 0.000000
												CHANNELS 3 Xrotation Yrotation Zrotation
												End Site
												{
													OFFSET 0.000000 4.409363 0.014373
												}
											}
										}
									}
								}
								JOINT LeftHandMiddle1
								{
									OFFSET 23.810104 0.000000 0.000000
									CHANNELS 3 Xrotation Yrotation Zrotation
									JOINT LeftHandMiddle2
									{
										OFFSET 7.176498 0.000000 0.000000
										CHANNELS 3 Xrotation Yrotation Zrotation
										JOINT LeftHandMiddle3
										{
											OFFSET 6.774902 0.000000 0.000000
											CHANNELS 3 Xrotation Yrotation Zrotation
											JOINT LeftHandMiddle4
											{
												OFFSET 5.403328 0.000000 0.000000
												CHANNELS 3 Xrotation Yrotation Zrotation
												End Site
												{
													OFFSET -0.027702 5.403244 0.017414
												}
											}
										}
									}
								}
								JOINT LeftHandRing1
								{
									OFFSET 22.908401 -0.839279 -6.020567
									CHANNELS 3 Xrotation Yrotation Zrotation
									JOINT LeftHandRing2
									{
										OFFSET 6.337502 0.000000 0.000000
										CHANNELS 3 Xrotation Yrotation Zrotation
										JOINT LeftHandRing3
										{
											OFFSET 5.779297 0.000000 0.000000
											CHANNELS 3 Xrotation Yrotation Zrotation
											JOINT LeftHandRing4
											{
												OFFSET 4.965698 0.000000 0.000000
												CHANNELS 3 Xrotation Yrotation Zrotation
												End Site
												{
													OFFSET 0.000000 4.965668 0.016186
												}
											}
										}
									}
								}
								JOINT LeftHandPinky1
								{
									OFFSET 20.037003 -1.530319 -10.950146
									CHANNELS 3 Xrotation Yrotation Zrotation
									JOINT LeftHandPinky2
									{
										OFFSET 5.254700 0.000000 0.000000
										CHANNELS 3 Xrotation Yrotation Zrotation
										JOINT LeftHandPinky3
										{
											OFFSET 4.810204 0.000000 0.000000
											CHANNELS 3 Xrotation Yrotation Zrotation
											JOINT LeftHandPinky4
											{
												OFFSET 3.647202 0.000000 0.000000
												CHANNELS 3 Xrotation Yrotation Zrotation
												End Site
												{
													OFFSET 0.000000 3.647186 0.011889
												}
											}
										}
									}
								}
							}
						}
					}
				}
				JOINT RightShoulder
				{
					OFFSET -15.141001 14.495407 -7.737500
					CHANNELS 3 Xrotation Yrotation Zrotation
					JOINT RightArm
					{
						OFFSET -9.308998 -2.777710 0.208500
						CHANNELS 3 Xrotation Yrotation Zrotation
						JOINT RightForeArm
						{
							OFFSET -29.972300 0.000000 0.000000
							CHANNELS 3 Xrotation Yrotation Zrotation
							JOINT RightHand
							{
								OFFSET -26.026505 0.000000 0.000000
								CHANNELS 3 Xrotation Yrotation Zrotation
								JOINT RightHandThumb1
								{
									OFFSET -12.240601 -7.148026 9.207092
									CHANNELS 3 Xrotation Yrotation Zrotation
									JOINT RightHandThumb2
									{
										OFFSET -4.138618 -2.389435 2.389433
										CHANNELS 3 Xrotation Yrotation Zrotation
										JOINT RightHandThumb3
										{
											OFFSET -2.726974 -1.574417 1.574421
											CHANNELS 3 Xrotation Yrotation Zrotation
											JOINT RightHandThumb4
											{
												OFFSET -3.941010 -2.275345 2.275343
												CHANNELS 3 Xrotation Yrotation Zrotation
												End Site
												{
													OFFSET 0.005814 5.087799 0.009927
												}
											}
										}
									}
								}
								JOINT RightHandIndex1
								{
									OFFSET -24.424698 -1.985657 5.953444
									CHANNELS 3 Xrotation Yrotation Zrotation
									JOINT RightHandIndex2
									{
										OFFSET -6.426697 0.000000 0.000000
										CHANNELS 3 Xrotation Yrotation Zrotation
										JOINT RightHandIndex3
										{
											OFFSET -5.337898 0.000000 0.000000
											CHANNELS 3 Xrotation Yrotation Zrotation
											JOINT RightHandIndex4
											{
												OFFSET -4.409401 0.000000 0.000000
												CHANNELS 3 Xrotation Yrotation Zrotation
												End Site
												{
													OFFSET 0.000000 4.409363 0.014408
												}
											}
										}
									}
								}
								JOINT RightHandMiddle1
								{
									OFFSET -23.810097 0.000000 0.000000
									CHANNELS 3 Xrotation Yrotation Zrotation
									JOINT RightHandMiddle2
									{
										OFFSET -7.176498 0.000000 0.000000
										CHANNELS 3 Xrotation Yrotation Zrotation
										JOINT RightHandMiddle3
										{
											OFFSET -6.774902 0.000000 0.000000
											CHANNELS 3 Xrotation Yrotation Zrotation
											JOINT RightHandMiddle4
											{
												OFFSET -5.403328 0.000000 0.000000
												CHANNELS 3 Xrotation Yrotation Zrotation
												End Site
												{
													OFFSET 0.027702 5.403244 0.017457
												}
											}
										}
									}
								}
								JOINT RightHandRing1
								{
									OFFSET -22.908302 -0.839325 -6.020576
									CHANNELS 3 Xrotation Yrotation Zrotation
									JOINT RightHandRing2
									{
										OFFSET -6.337502 0.000000 0.000000
										CHANNELS 3 Xrotation Yrotation Zrotation
										JOINT RightHandRing3
										{
											OFFSET -5.779297 0.000000 0.000000
											CHANNELS 3 Xrotation Yrotation Zrotation
											JOINT RightHandRing4
											{
												OFFSET -4.965698 0.000000 0.000000
												CHANNELS 3 Xrotation Yrotation Zrotation
												End Site
												{
													OFFSET 0.000000 4.965668 0.016226
												}
											}
										}
									}
								}
								JOINT RightHandPinky1
								{
									OFFSET -20.037003 -1.530334 -10.950259
									CHANNELS 3 Xrotation Yrotation Zrotation
									JOINT RightHandPinky2
									{
										OFFSET -5.254700 0.000000 0.000000
										CHANNELS 3 Xrotation Yrotation Zrotation
										JOINT RightHandPinky3
										{
											OFFSET -4.810204 0.000000 0.000000
											CHANNELS 3 Xrotation Yrotation Zrotation
											JOINT RightHandPinky4
											{
												OFFSET -3.647202 0.000000 0.000000
												CHANNELS 3 Xrotation Yrotation Zrotation
												End Site
												{
													OFFSET 0.000000 3.647186 0.011917
												}
											}
										}
									}
								}
							}
						}
					}
				}
			}
		}
	}
	JOINT LeftUpLeg
	{
		OFFSET 15.427100 -6.655098 0.678600
		CHANNELS 3 Xrotation Yrotation Zrotation
		JOINT LeftLeg
		{
			OFFSET 4.081073 -39.591068 13.024000
			CHANNELS 3 Xrotation Yrotation Zrotation
			JOINT LeftFoot
			{
				OFFSET -4.081074 -37.707932 -15.979700
				CHANNELS 3 Xrotation Yrotation Zrotation
				JOINT LeftToeBase
				{
					OFFSET 5.346399 -15.068900 20.645000
					CHANNELS 3 Xrotation Yrotation Zrotation
					JOINT LeftToe_End
					{
						OFFSET 2.754700 0.931300 11.300900
						CHANNELS 3 Xrotation Yrotation Zrotation
						End Site
						{
							OFFSET 0.000000 11.669021 0.000000
						}
					}
				}
			}
		}
	}
	JOINT RightUpLeg
	{
		OFFSET -15.569500 -6.655098 0.678600
		CHANNELS 3 Xrotation Yrotation Zrotation
		JOINT RightLeg
		{
			OFFSET -4.081825 -39.591045 13.023800
			CHANNELS 3 Xrotation Yrotation Zrotation
			JOINT RightFoot
			{
				OFFSET 4.081824 -37.707954 -15.979600
				CHANNELS 3 Xrotation Yrotation Zrotation
				JOINT RightToeBase
				{
					OFFSET -5.346400 -15.068900 20.645000
					CHANNELS 3 Xrotation Yrotation Zrotation
					JOINT RightToe_End
					{
						OFFSET -2.754700 0.931300 11.300900
						CHANNELS 3 Xrotation Yrotation Zrotation
						End Site
						{
							OFFSET 0.000000 11.669021 0.000000
						}
					}
				}
			}
		}
	}
}
MOTION
Frames: 5
Frame Time: 0.033333
0.380858 6.373070 2.728027 -82.533697 1.405682 -2.120804 3.963722 1.462974 1.201952 7.954918 2.684916 0.860721 7.954912 2.684914 0.860721 6.957514 -5.976510 6.784412 22.030193 -3.101432 -2.822182 -0.000001 0.000000 0.000000 0.450656 -2.900737 2.674534 60.545980 4.360998 -30.673683 -0.948237 -92.899397 -0.809425 32.356382 5.951096 -1.251742 -9.831969 -3.660114 13.230650 1.431912 4.902455 2.088057 0.000008 0.000008 0.000005 -0.000001 -0.000003 -0.000002 -0.104731 -1.598831 -5.043622 0.046681 0.707573 -13.227428 -0.000000 -0.000001 0.000000 -0.000000 0.000001 -0.000002 0.668749 6.318926 -7.694576 -0.085403 -0.352153 -10.479517 -0.000000 -0.000010 0.000001 -0.000000 -0.000001 -0.000001 0.079018 8.235322 -7.001291 -0.289131 -2.192402 -19.960649 -0.000000 -0.000004 -0.000000 -0.000001 -0.000000 0.000000 0.034151 14.514531 -1.979561 -0.689713 -5.844819 -26.245471 -0.000001 -0.000001 0.000002 0.000001 0.000000 -0.000000 16.323109 2.634520 -5.694974 51.815656 -10.811627 52.878143 0.925426 88.089626 -1.086649 36.026594 0.852599 -4.372986 -9.377036 7.134335 -11.135357 1.331329 -4.697604 -2.076937 0.000006 -0.000008 -0.000011 -0.000001 -0.000001 0.000000 -1.241367 0.637296 7.546368 0.142478 -1.179516 18.540263 0.000002 -0.000001 0.000003 0.000000 0.000000 -0.000000 -1.202456 -1.093228 8.459627 -0.126420 0.412704 14.898022 0.000000 0.000015 -0.000001 0.000000 -0.000001 -0.000002 2.082094 -11.758652 7.954979 -0.396048 2.673768 20.717869 0.000000 0.000002 -0.000001 0.000001 0.000002 0.000001 3.283966 -14.189491 3.913385 -1.616040 8.311127 33.171838 0.000000 -0.000017 -0.000004 -0.000000 -0.000001 0.000002 -22.187852 9.280192 10.596613 7.423013 -12.039398 -5.530258 8.278822 23.424303 -8.110239 0.994594 -2.416799 1.278033 -0.000000 -0.000001 0.000000 -17.475707 -6.712114 -9.509574 1.310334 14.309539 6.818524 13.982109 -27.550217 18.142418 4.248432 -3.075256 1.908538 -0.000000 -0.000001 0.000001 
0.384034 6.372810 2.711304 -82.539865 1.407549 -2.128029 3.965402 1.464333 1.206397 7.958230 2.686939 0.864174 7.958254 2.686938 0.864175 6.917909 -5.960039 6.808134 22.021309 -3.074483 -2.857364 0.000001 0.000000 0.000000 0.450990 -2.912705 2.683885 60.573369 4.390893 -30.638183 -0.941182 -92.917736 -0.802425 32.297243 5.929460 -1.252669 -9.789404 -3.664101 13.186371 1.402404 4.931451 2.107617 0.000007 0.000008 0.000003 0.000000 -0.000000 -0.000002 -0.105764 -1.633064 -5.031488 0.046702 0.707573 -13.229215 0.000001 0.000000 -0.000000 0.000001 0.000000 -0.000003 0.664081 6.279627 -7.695315 -0.085284 -0.350533 -10.458667 -0.000002 -0.000008 0.000000 -0.000000 0.000000 0.000000 0.082799 8.253146 -7.034814 -0.288174 -2.190435 -19.935633 -0.000001 -0.000001 -0.000000 0.000001 0.000001 0.000002 0.038655 14.529448 -2.010785 -0.689246 -5.844429 -26.240709 -0.000000 0.000003 -0.000001 0.000000 0.000002 -0.000001 16.322733 2.631971 -5.680017 51.806684 -10.820714 52.882180 0.926619 88.083171 -1.088131 36.031522 0.863865 -4.395040 -9.380820 7.050036 -11.184188 1.358894 -4.666024 -2.058899 0.000006 -0.000008 -0.000014 0.000000 -0.000001 -0.000002 -1.242067 0.641494 7.547906 0.143513 -1.181213 18.589062 0.000002 -0.000001 0.000002 0.000001 -0.000000 0.000000 -1.205885 -1.075488 8.481516 -0.126436 0.412856 14.900350 0.000001 0.000016 -0.000002 0.000000 -0.000001 0.000001 2.080227 -11.723614 7.961031 -0.397171 2.676246 20.741748 0.000001 0.000000 0.000001 0.000001 0.000000 -0.000001 3.286742 -14.231560 3.940747 -1.624506 8.318336 33.233061 0.000002 -0.000016 -0.000006 0.000001 0.000002 -0.000000 -22.167871 9.302257 10.595684 7.392401 -12.040876 -5.529306 8.282333 23.384111 -8.091321 1.003041 -2.420149 1.280303 -0.000000 -0.000000 -0.000000 -17.410781 -6.501483 -9.474238 1.262632 14.321264 6.825892 14.019501 -27.819482 18.205215 4.279646 -3.018404 1.886195 -0.000001 -0.000002 0.000001 
0.384735 6.371330 2.710190 -82.552658 1.409049 -2.122238 3.970094 1.464427 1.206887 7.967713 2.686744 0.862124 7.967715 2.686746 0.862123 6.875393 -5.953807 6.804863 22.037416 -3.062334 -2.889327 -0.000001 0.000000 -0.000000 0.451266 -2.919648 2.691509 60.575848 4.403417 -30.626090 -0.940244 -92.927073 -0.801387 32.263286 5.910729 -1.271278 -9.742292 -3.623896 13.172927 1.365135 4.967900 2.132417 0.000008 0.000009 0.000003 0.000001 -0.000001 -0.000002 -0.111216 -1.654032 -5.059278 0.046685 0.707539 -13.228062 -0.000001 -0.000001 -0.000001 0.000000 0.000001 -0.000000 0.668229 6.304978 -7.716094 -0.085376 -0.351748 -10.474315 -0.000001 -0.000007 -0.000000 -0.000000 -0.000002 -0.000000 0.082190 8.255999 -7.024219 -0.289328 -2.192795 -19.965850 0.000001 -0.000002 -0.000002 0.000000 -0.000000 0.000000 0.044264 14.552724 -2.051180 -0.689800 -5.844898 -26.246329 -0.000002 -0.000000 0.000000 -0.000002 0.000001 -0.000001 16.322561 2.621466 -5.671426 51.788813 -10.836905 52.878454 0.931262 88.084968 -1.092645 36.038035 0.873136 -4.375696 -9.286898 7.029109 -11.144333 1.328642 -4.700415 -2.078829 0.000008 -0.000008 -0.000011 0.000001 0.000000 -0.000002 -1.238794 0.625581 7.535574 0.142641 -1.179764 18.547799 0.000002 -0.000001 0.000000 0.000000 -0.000001 0.000000 -1.208442 -1.053344 8.468215 -0.126328 0.411980 14.885684 0.000001 0.000015 -0.000000 0.000000 0.000001 -0.000002 2.085583 -11.772691 7.972182 -0.396265 2.674270 20.722355 -0.000001 -0.000002 -0.000001 -0.000001 -0.000002 -0.000001 3.289947 -14.160213 3.940640 -1.624156 8.318053 33.230445 0.000002 -0.000016 -0.000006 -0.000001 0.000001 0.000001 -22.158431 9.295359 10.580467 7.397374 -12.037862 -5.528227 8.289971 23.385991 -8.044972 1.029808 -2.436047 1.290039 0.000000 -0.000000 0.000000 -17.362809 -6.382883 -9.469840 1.245683 14.325910 6.828354 13.978353 -27.951330 18.217537 4.314148 -3.025764 1.892967 -0.000001 -0.000000 -0.000000 
0.383693 6.368874 2.725723 -82.559468 1.411330 -2.107024 3.976580 1.460008 1.199445 7.980540 2.679281 0.856102 7.980526 2.679282 0.856101 6.913343 -5.956151 6.856234 21.990769 -3.045156 -2.980456 -0.000002 -0.000000 -0.000000 0.451038 -2.928556 2.658391 60.582644 4.469990 -30.623734 -0.933546 -92.957891 -0.794563 32.249411 5.902380 -1.290702 -9.736417 -3.640457 13.171494 1.386346 4.946338 2.118824 0.000007 0.000010 0.000005 -0.000000 -0.000001 -0.000002 -0.105637 -1.649586 -5.018306 0.046666 0.707561 -13.226170 0.000000 -0.000001 -0.000001 -0.000000 0.000001 -0.000002 0.666782 6.307484 -7.682416 -0.085373 -0.351751 -10.474181 -0.000000 -0.000009 0.000001 0.000001 -0.000002 -0.000000 0.083963 8.266148 -7.038782 -0.288355 -2.190814 -19.940348 -0.000001 -0.000002 -0.000003 -0.000000 -0.000002 0.000001 0.053288 14.567100 -2.107515 -0.689500 -5.844645 -26.243328 0.000001 -0.000001 -0.000001 -0.000000 0.000001 0.000003 16.322902 2.609979 -5.687840 51.753522 -10.832292 52.870701 0.935118 88.087877 -1.096601 36.059253 0.870558 -4.345459 -9.300136 7.034024 -11.157790 1.354041 -4.671096 -2.062358 0.000008 -0.000008 -0.000013 -0.000002 -0.000000 -0.000001 -1.240867 0.634955 7.544384 0.142539 -1.179591 18.543129 0.000002 -0.000001 0.000001 0.000000 -0.000000 -0.000003 -1.204926 -1.065461 8.425867 -0.126481 0.413196 14.906259 0.000000 0.000014 -0.000000 0.000000 0.000000 -0.000001 2.085503 -11.765968 7.975367 -0.396055 2.673804 20.717994 -0.000002 0.000001 -0.000001 0.000000 0.000001 0.000001 3.294843 -14.168144 3.971418 -1.632112 8.324816 33.287747 0.000001 -0.000016 -0.000007 0.000002 -0.000000 0.000002 -22.179006 9.298830 10.564455 7.437861 -12.036540 -5.530196 8.295506 23.388432 -7.996775 1.044838 -2.453824 1.299844 0.000000 0.000002 -0.000000 -17.449026 -6.791620 -9.528805 1.301142 14.304352 6.814253 13.926479 -27.518088 18.112620 4.393944 -3.018925 1.897980 0.000000 -0.000001 0.000000 
0.382863 6.368156 2.739189 -82.552344 1.414103 -2.095322 3.978884 1.449423 1.191672 7.984728 2.660176 0.854578 7.984723 2.660180 0.854578 6.870868 -6.175149 6.442751 22.209666 -3.391291 -2.491469 0.000004 0.000000 0.000000 0.452079 -2.970871 2.660201 60.631309 4.533002 -30.712355 -0.919935 -93.001734 -0.780768 32.270803 5.906426 -1.275037 -9.669186 -3.650689 13.093655 1.378893 4.952854 2.124271 0.000008 0.000008 0.000002 -0.000001 0.000000 -0.000001 -0.108014 -1.613982 -5.053904 0.046630 0.707480 -13.223562 -0.000000 -0.000001 -0.000001 -0.000000 -0.000000 -0.000002 0.663229 6.276811 -7.684046 -0.085478 -0.353103 -10.491107 -0.000001 -0.000010 0.000003 -0.000001 -0.000002 -0.000001 0.081490 8.232676 -7.040445 -0.288699 -2.191510 -19.949171 -0.000000 -0.000002 0.000000 -0.000001 0.000001 0.000000 0.058195 14.573800 -2.137585 -0.690779 -5.845773 -26.256244 0.000000 0.000001 -0.000001 0.000001 -0.000000 -0.000000 16.324905 2.560749 -5.773579 51.683355 -10.715408 52.846567 0.920136 88.060318 -1.081763 36.122944 0.845643 -4.308436 -9.304264 7.003005 -11.185086 1.345197 -4.680811 -2.068391 0.000007 -0.000008 -0.000012 -0.000000 -0.000001 0.000001 -1.241926 0.629544 7.563122 0.142707 -1.179873 18.551045 0.000002 -0.000001 0.000000 0.000000 0.000001 0.000000 -1.205963 -1.071310 8.469491 -0.126431 0.412820 14.899943 0.000001 0.000015 -0.000002 0.000000 -0.000001 0.000003 2.086658 -11.764302 7.984575 -0.396071 2.673829 20.718206 -0.000001 -0.000000 -0.000002 0.000002 0.000001 -0.000001 3.301052 -14.170091 4.008285 -1.624941 8.318713 33.236134 0.000001 -0.000016 -0.000006 0.000000 0.000000 0.000001 -22.217069 9.287818 10.551410 7.476464 -12.034728 -5.532172 8.339559 23.388690 -7.962767 1.033971 -2.443285 1.293840 -0.000000 -0.000002 0.000000 -17.595225 -7.358725 -9.596763 1.376605 14.277074 6.796880 13.923692 -26.906600 17.966690 4.507193 -2.991723 1.897182 -0.000000 0.000003 -0.000001 
